<svg width="101" height="98" viewBox="0 0 101 98" fill="none" xmlns="http://www.w3.org/2000/svg">
<path d="M55.7295 84.368L48.2368 74.6778L49.4797 74.3719L56.5049 83.5016L55.8213 83.6699L57.8383 72.3149L59.0035 72.0281L56.8637 84.0889L55.7295 84.368Z" fill="#FAFAFA"/>
<path d="M65.7116 73.1136L69.9817 69.0133L70.6799 69.7404L66.4097 73.8407L65.7116 73.1136ZM69.3833 76.7527L74.2421 72.0872L74.9513 72.8258L69.2385 78.3113L61.4813 70.2327L67.0209 64.9134L67.7302 65.652L63.0445 70.1512L69.3833 76.7527Z" fill="#FAFAFA"/>
<path d="M79.8638 64.9088L69.0123 62.1363L69.2539 61.1907L80.5922 56.1113L80.4655 56.6074L71.0402 54.1993L71.3293 53.0676L82.1808 55.8401L81.9392 56.7858L70.6049 61.8496L70.7316 61.3536L80.1569 63.7617L79.8638 64.9088Z" fill="#FAFAFA"/>
<path d="M81.9113 44.8756L71.4019 48.7479L69.8254 44.4691C69.4124 43.3481 69.2761 42.2842 69.4168 41.2775C69.5437 40.2645 69.9158 39.3771 70.5332 38.6154C71.1506 37.8536 71.9747 37.2828 73.0056 36.9029C74.0366 36.5231 75.034 36.4227 75.9981 36.6018C76.9621 36.7809 77.826 37.2128 78.5899 37.8976C79.3401 38.5761 79.9217 39.4758 80.3347 40.5968L81.9113 44.8756ZM80.5411 44.1187L79.396 41.0109C79.053 40.0801 78.576 39.3408 77.9649 38.7929C77.3401 38.2387 76.6374 37.8895 75.8567 37.7452C75.0659 37.6046 74.2502 37.6891 73.4095 37.9989C72.5587 38.3124 71.8831 38.7773 71.3827 39.3937C70.8823 40.01 70.5791 40.7299 70.4732 41.5533C70.3537 42.3703 70.4654 43.2443 70.8084 44.1751L71.9534 47.2828L80.5411 44.1187Z" fill="#FAFAFA"/>
<path d="M67.5447 31.6759L62.876 28.0358L63.4958 27.2409L68.1645 30.881L67.5447 31.6759ZM70.6214 27.5216L65.3092 23.3798L65.9389 22.5722L72.1848 27.4421L65.2982 36.2747L59.2415 31.5524L59.8712 30.7449L64.9941 34.7391L70.6214 27.5216Z" fill="#FAFAFA"/>
<path d="M44.7602 18.3166L46.2535 28.3824L50.1469 27.8048L50.2972 28.8177L41.3392 30.1467L41.1889 29.1338L45.0823 28.5561L43.589 18.4903L44.7602 18.3166Z" fill="#FAFAFA"/>
<path d="M27.9241 25.1881C29.0435 24.2993 30.1802 23.9211 31.3341 24.0536C32.4881 24.1861 33.5658 24.883 34.5674 26.1444L38.5571 31.1691L37.6299 31.9053L33.67 26.9183C32.8475 25.8824 32.0067 25.3038 31.1476 25.1824C30.2884 25.061 29.4328 25.3385 28.5808 26.0151C27.7203 26.6983 27.2519 27.472 27.1755 28.3363C27.099 29.2006 27.472 30.1507 28.2945 31.1865L32.2543 36.1736L31.3522 36.89L27.3625 31.8653C26.3609 30.6039 25.9263 29.3962 26.0588 28.2423C26.183 27.095 26.8047 26.0769 27.9241 25.1881Z" fill="#FAFAFA"/>
<path d="M18.3993 36.3789L29.0571 39.8213L27.6555 44.1606C27.2883 45.2974 26.7386 46.2184 26.0065 46.9235C25.2812 47.642 24.4406 48.1103 23.4846 48.3284C22.5286 48.5464 21.5279 48.4866 20.4824 48.1489C19.4369 47.8113 18.5903 47.2744 17.9425 46.5383C17.2947 45.8022 16.8818 44.929 16.7037 43.9187C16.5325 42.9219 16.6305 41.855 16.9977 40.7182L18.3993 36.3789ZM19.0098 37.8203L17.9918 40.972C17.6869 41.916 17.6057 42.7921 17.7481 43.6003C17.8975 44.422 18.2347 45.1306 18.7597 45.7262C19.2949 46.325 19.9888 46.7621 20.8414 47.0375C21.7042 47.3162 22.5227 47.3675 23.2969 47.1917C24.0711 47.0158 24.754 46.6367 25.3457 46.0543C25.9442 45.4854 26.3959 44.7289 26.7008 43.785L27.7187 40.6333L19.0098 37.8203Z" fill="#FAFAFA"/>
<path d="M16.4204 60.9638C16.1789 60.1565 16.087 59.3657 16.1447 58.5913C16.2158 57.8241 16.4201 57.1116 16.7577 56.4539C17.1086 55.8033 17.5683 55.2371 18.1367 54.7553C18.7184 54.2806 19.4026 53.9255 20.1895 53.6901C20.9763 53.4547 21.7381 53.377 22.4746 53.4572C23.2245 53.5446 23.9196 53.7653 24.5599 54.1192C25.2136 54.4804 25.7756 54.9635 26.2462 55.5687C26.727 56.1708 27.0897 56.8806 27.3343 57.6981C27.5759 58.5054 27.6611 59.2927 27.5901 60.0599C27.5293 60.8241 27.3285 61.5299 26.9878 62.1774C26.6502 62.8352 26.1906 63.4014 25.6089 63.876C25.0303 64.3609 24.3475 64.7211 23.5607 64.9565C22.7738 65.192 22.0055 65.266 21.2556 65.1786C20.5088 65.1015 19.8137 64.8808 19.1703 64.5166C18.53 64.1627 17.9694 63.6847 17.4886 63.0825C17.0181 62.4774 16.662 61.7711 16.4204 60.9638ZM17.4321 60.6611C17.6248 61.3049 17.9094 61.8655 18.2861 62.3429C18.676 62.8275 19.1299 63.2094 19.6477 63.4887C20.1787 63.7751 20.7436 63.9512 21.3423 64.0171C21.9511 64.0798 22.5775 64.0149 23.2213 63.8222C23.8651 63.6296 24.419 63.3414 24.8831 62.9575C25.3575 62.5707 25.7328 62.1132 26.009 61.5852C26.2985 61.0643 26.468 60.4959 26.5175 59.8799C26.5802 59.271 26.5153 58.6446 26.3226 58.0008C26.13 57.3571 25.8387 56.7929 25.4488 56.3083C25.0691 55.8207 24.6137 55.4337 24.0826 55.1472C23.5648 54.8679 22.9999 54.6918 22.388 54.6188C21.7893 54.553 21.1681 54.6164 20.5243 54.8091C19.8907 54.9987 19.3368 55.2869 18.8624 55.6738C18.3912 56.0709 18.0108 56.5298 17.7213 57.0507C17.445 57.5787 17.2771 58.1523 17.2174 58.7714C17.1679 59.3874 17.2395 60.0173 17.4321 60.6611Z" fill="#FAFAFA"/>
<path d="M39.654 57.084C38.9447 57.084 38.2727 56.972 37.638 56.748C37.0127 56.5147 36.5087 56.2067 36.126 55.824L36.616 55.026C36.9333 55.3527 37.358 55.6233 37.89 55.838C38.4313 56.0527 39.0193 56.16 39.654 56.16C40.466 56.16 41.0867 55.9827 41.516 55.628C41.9547 55.2733 42.174 54.7973 42.174 54.2C42.174 53.6027 41.9593 53.1267 41.53 52.772C41.11 52.4173 40.4427 52.24 39.528 52.24H38.828V51.498L41.852 47.704L41.992 48.096H36.532V47.2H42.832V47.914L39.808 51.708L39.318 51.386H39.696C40.872 51.386 41.7493 51.6473 42.328 52.17C42.916 52.6927 43.21 53.3647 43.21 54.186C43.21 54.7367 43.0793 55.2313 42.818 55.67C42.5567 56.1087 42.16 56.454 41.628 56.706C41.1053 56.958 40.4473 57.084 39.654 57.084ZM48.6483 57.084C47.7803 57.084 47.0477 56.8927 46.4503 56.51C45.853 56.118 45.4003 55.558 45.0923 54.83C44.7843 54.0927 44.6303 53.2107 44.6303 52.184C44.6303 51.0733 44.817 50.1447 45.1903 49.398C45.573 48.642 46.1003 48.0727 46.7723 47.69C47.4443 47.3073 48.2237 47.116 49.1103 47.116C49.549 47.116 49.969 47.158 50.3703 47.242C50.7717 47.326 51.1263 47.4613 51.4343 47.648L51.0283 48.46C50.7763 48.292 50.487 48.1753 50.1603 48.11C49.8337 48.0353 49.4883 47.998 49.1243 47.998C48.0697 47.998 47.225 48.334 46.5903 49.006C45.965 49.678 45.6523 50.6813 45.6523 52.016C45.6523 52.2213 45.6617 52.478 45.6803 52.786C45.7083 53.0847 45.7643 53.3833 45.8483 53.682L45.4983 53.416C45.601 52.9307 45.8017 52.52 46.1003 52.184C46.399 51.8387 46.7723 51.5773 47.2203 51.4C47.6683 51.2227 48.1583 51.134 48.6903 51.134C49.3437 51.134 49.9177 51.2553 50.4123 51.498C50.907 51.7407 51.2943 52.0813 51.5743 52.52C51.8543 52.9587 51.9943 53.4767 51.9943 54.074C51.9943 54.6807 51.8497 55.2127 51.5603 55.67C51.271 56.118 50.8697 56.468 50.3563 56.72C49.8523 56.9627 49.283 57.084 48.6483 57.084ZM48.6063 56.23C49.073 56.23 49.4837 56.146 49.8383 55.978C50.2023 55.8007 50.487 55.5533 50.6923 55.236C50.8977 54.9093 51.0003 54.5313 51.0003 54.102C51.0003 53.458 50.7763 52.9447 50.3283 52.562C49.8897 52.1793 49.2923 51.988 48.5363 51.988C48.0323 51.988 47.5937 52.0813 47.2203 52.268C46.847 52.4547 46.553 52.7113 46.3383 53.038C46.1237 53.3553 46.0163 53.7193 46.0163 54.13C46.0163 54.4847 46.1143 54.8253 46.3103 55.152C46.5063 55.4693 46.7957 55.7307 47.1783 55.936C47.5703 56.132 48.0463 56.23 48.6063 56.23Z" fill="#FAFAFA"/>
<g clip-path="url(#clip0_5_73)">
<path d="M59.481 58.6223L61.3122 56.3415L59.0314 54.5103" stroke="#FAFAFA" stroke-linecap="round" stroke-linejoin="round"/>
<path d="M61.8841 53.6748C62.1993 52.7774 62.2143 51.8018 61.9269 50.895C61.6394 49.9883 61.0651 49.1995 60.2903 48.6476C59.5156 48.0956 58.5825 47.8104 57.6316 47.8349C56.6807 47.8594 55.7635 48.1923 55.0182 48.7834C54.273 49.3745 53.74 50.1918 53.4996 51.1121C53.2592 52.0324 53.3244 53.006 53.6854 53.886C54.0465 54.7661 54.6837 55.505 55.5012 55.9914C56.3186 56.4777 57.272 56.6853 58.2177 56.5827L61.3122 56.3415" stroke="#FAFAFA" stroke-linecap="round" stroke-linejoin="round"/>
</g>
<defs>
<clipPath id="clip0_5_73">
<rect width="11.6998" height="11.6998" fill="white" transform="translate(58.6403 60.448) rotate(-141.239)"/>
</clipPath>
</defs>
</svg>
