<svg width="69" height="39" viewBox="0 0 69 39" fill="none" xmlns="http://www.w3.org/2000/svg">
<g clip-path="url(#clip0_48_33)">
<path d="M54.4102 33.4204L58.3451 28.5195L53.4442 24.5845" stroke="#222222" stroke-width="4" stroke-linecap="round" stroke-linejoin="round"/>
<path d="M59.574 22.7893C60.2513 20.8608 60.2836 18.7644 59.6659 16.816C59.0482 14.8676 57.814 13.1727 56.1493 11.9867C54.4846 10.8007 52.4795 10.1878 50.4362 10.2405C48.3929 10.2931 46.4221 11.0084 44.8206 12.2785C43.2192 13.5487 42.0739 15.3049 41.5574 17.2825C41.0408 19.2601 41.181 21.3521 41.9567 23.2431C42.7325 25.1342 44.1018 26.7219 45.8583 27.767C47.6149 28.8122 49.6636 29.2582 51.6956 29.0378L58.3451 28.5195" stroke="#222222" stroke-width="4" stroke-linecap="round" stroke-linejoin="round"/>
</g>
<path d="M8.448 31.32C6.86933 31.32 5.32267 31.096 3.808 30.648C2.31467 30.1787 1.056 29.5387 0.032 28.728L1.824 25.496C2.63467 26.1573 3.616 26.6907 4.768 27.096C5.92 27.5013 7.12533 27.704 8.384 27.704C9.87733 27.704 11.04 27.4053 11.872 26.808C12.704 26.1893 13.12 25.3573 13.12 24.312C13.12 23.288 12.736 22.4773 11.968 21.88C11.2 21.2827 9.96267 20.984 8.256 20.984H6.208V18.136L12.608 10.52L13.152 12.088H1.12V8.6H16.384V11.384L9.984 19L7.808 17.72H9.056C11.808 17.72 13.8667 18.3387 15.232 19.576C16.6187 20.792 17.312 22.36 17.312 24.28C17.312 25.5387 16.992 26.7013 16.352 27.768C15.712 28.8347 14.7307 29.6987 13.408 30.36C12.1067 31 10.4533 31.32 8.448 31.32ZM29.729 31.32C27.7023 31.32 25.9637 30.8933 24.513 30.04C23.0623 29.1653 21.953 27.9067 21.185 26.264C20.417 24.6213 20.033 22.5947 20.033 20.184C20.033 17.624 20.4917 15.4587 21.409 13.688C22.3477 11.9173 23.6383 10.5733 25.281 9.656C26.945 8.73867 28.8543 8.28 31.009 8.28C32.1397 8.28 33.217 8.39733 34.241 8.632C35.2863 8.86667 36.1717 9.22933 36.897 9.72L35.361 12.856C34.7423 12.4507 34.0703 12.1733 33.345 12.024C32.641 11.8533 31.8943 11.768 31.105 11.768C28.993 11.768 27.3183 12.4187 26.081 13.72C24.8437 15.0213 24.225 16.9413 24.225 19.48C24.225 19.8853 24.2357 20.3653 24.257 20.92C24.2783 21.4533 24.353 21.9973 24.481 22.552L23.201 21.144C23.585 20.2693 24.1077 19.544 24.769 18.968C25.4517 18.3707 26.2517 17.9227 27.169 17.624C28.1077 17.3253 29.121 17.176 30.209 17.176C31.681 17.176 32.993 17.464 34.145 18.04C35.297 18.5947 36.2143 19.3947 36.897 20.44C37.5797 21.464 37.921 22.6693 37.921 24.056C37.921 25.528 37.5583 26.808 36.833 27.896C36.1077 28.984 35.1263 29.8267 33.889 30.424C32.6517 31.0213 31.265 31.32 29.729 31.32ZM29.505 28.056C30.3583 28.056 31.1157 27.9067 31.777 27.608C32.4383 27.288 32.9503 26.84 33.313 26.264C33.697 25.688 33.889 25.016 33.889 24.248C33.889 23.0747 33.4837 22.1467 32.673 21.464C31.8623 20.7813 30.7743 20.44 29.409 20.44C28.513 20.44 27.7237 20.6107 27.041 20.952C26.3797 21.272 25.8463 21.72 25.441 22.296C25.057 22.872 24.865 23.5333 24.865 24.28C24.865 24.9627 25.0463 25.592 25.409 26.168C25.7717 26.744 26.2943 27.2027 26.977 27.544C27.681 27.8853 28.5237 28.056 29.505 28.056Z" fill="#222222"/>
<defs>
<clipPath id="clip0_48_33">
<rect width="25.1405" height="25.1405" fill="white" transform="translate(52.6036 37.3435) rotate(-141.239)"/>
</clipPath>
</defs>
</svg>
